# xmcd
#
# Track frame offsets:
#	150
#	11280
#	23802
#	39190
#	51082
#	61737
#	74220
#	85155
#	96617
#	109977
#	129187
#	141315
#	162852
#	172930
#	199122
#	225425
#	237182
#	249192
#
# Disc length: 3508
#
# Revision: 1
# Processed by: cddbd v1.5.1PL0 Copyright (c) Steve Scherf et al.
# Submitted via: inCDius 1.1b9
# Normalized: r0:DSETVAR1,TDELIM( - )
#
DISCID=e50db212
DTITLE=Various Artist - Boom Boom: 18 Greatest Blues Masters
DYEAR=1900
DGENRE=
TTITLE0=John Lee Hooker - Boom Boom
TTITLE1=Elmore James - Standing At The Crossroads
TTITLE2=Howlin' Wolf - Goin' Down Slow
TTITLE3=Canned Heat - Got My Mojo Working
TTITLE4=Jonny Winter - Out Of Sight
TTITLE5=Howlin' Wolf - Highway 49
TTITLE6=Elmore James - Coming Home
TTITLE7=Lightin' Hopkins - Easy On Your Wheels
TTITLE8=Muddy Waters - Rollin' And Tumblin'
TTITLE9=Sonny Boy Williamson - Nine Below Zero
TTITLE10=Lighting Slim - Rooster Blues
TTITLE11=Brownie McGhee and Sonny Terry - Blues For Fhe Lowlands
TTITLE12=John Lee Hocker - Dimples
TTITLE13=John Mayall - Ridin' On The L and N
TTITLE14=Big Mama Thornton - Little Red Rooster
TTITLE15=Big Joe Williams - Ride In My New Car
TTITLE16=B.B. King - Paying The Cost To Be The Boss
TTITLE17=Missisippi John Hurt - Spike Drivers Blues
EXTD=
EXTT0=
EXTT1=
EXTT2=
EXTT3=
EXTT4=
EXTT5=
EXTT6=
EXTT7=
EXTT8=
EXTT9=
EXTT10=
EXTT11=
EXTT12=
EXTT13=
EXTT14=
EXTT15=
EXTT16=
EXTT17=
PLAYORDER=
